<svg 
 xmlns="http://www.w3.org/2000/svg"
 xmlns:xlink="http://www.w3.org/1999/xlink"
 width="158px" height="53px">
<path fill-rule="evenodd"  fill="rgb(240, 38, 106)"
 d="M0.000,53.000 L0.000,0.000 L158.000,0.000 L158.000,53.000 L0.000,53.000 ZM24.780,30.146 L20.885,30.146 L20.885,31.118 C20.885,31.787 20.865,32.374 20.824,32.881 C20.783,33.387 20.695,33.909 20.558,34.445 C20.421,34.983 20.233,35.424 19.995,35.768 C19.757,36.112 19.429,36.396 19.014,36.619 C18.598,36.842 18.101,36.953 17.523,36.953 C16.945,36.953 16.440,36.844 16.009,36.626 C15.578,36.409 15.233,36.122 14.974,35.768 C14.716,35.413 14.505,34.975 14.343,34.453 C14.181,33.931 14.071,33.408 14.016,32.881 C13.960,32.354 13.932,31.766 13.932,31.118 L13.932,21.393 C13.932,20.644 13.953,20.012 13.993,19.501 C14.033,18.990 14.122,18.466 14.259,17.928 C14.396,17.392 14.591,16.964 14.845,16.645 C15.098,16.325 15.451,16.064 15.902,15.862 C16.354,15.659 16.894,15.558 17.523,15.558 C18.010,15.558 18.436,15.611 18.801,15.717 C19.165,15.824 19.467,15.991 19.706,16.219 C19.944,16.447 20.142,16.695 20.299,16.964 C20.456,17.232 20.575,17.569 20.657,17.974 C20.738,18.379 20.793,18.772 20.824,19.151 C20.855,19.532 20.874,19.990 20.885,20.527 L20.885,21.393 L24.780,21.393 C24.780,20.988 24.774,20.689 24.764,20.496 C24.714,19.210 24.549,18.086 24.270,17.123 C23.991,16.161 23.575,15.315 23.022,14.585 C22.470,13.856 21.732,13.304 20.809,12.929 C19.886,12.555 18.791,12.367 17.523,12.367 C16.377,12.367 15.367,12.529 14.495,12.853 C13.623,13.178 12.908,13.623 12.350,14.191 C11.792,14.758 11.338,15.469 10.988,16.325 C10.638,17.181 10.392,18.096 10.250,19.068 C10.108,20.040 10.037,21.140 10.037,22.366 L10.037,30.130 C10.037,31.356 10.108,32.455 10.250,33.428 C10.392,34.400 10.638,35.315 10.988,36.171 C11.338,37.027 11.792,37.741 12.350,38.313 C12.908,38.885 13.623,39.333 14.495,39.658 C15.367,39.981 16.377,40.144 17.523,40.144 C18.861,40.144 20.005,39.931 20.954,39.506 C21.901,39.080 22.652,38.460 23.205,37.644 C23.758,36.829 24.158,35.889 24.407,34.826 C24.655,33.762 24.780,32.526 24.780,31.118 L24.780,30.146 ZM49.420,12.640 L45.525,12.640 L39.683,39.870 L43.578,39.870 L45.038,33.063 L49.907,33.063 L51.367,39.870 L55.261,39.870 L49.420,12.640 ZM85.105,12.640 L81.210,12.640 L81.210,29.477 L74.394,12.640 L71.473,12.640 L71.473,39.870 L75.368,39.870 L75.368,21.758 L82.336,39.870 L85.105,39.870 L85.105,12.640 ZM116.652,12.640 L112.757,12.640 L112.757,29.477 L105.942,12.640 L103.021,12.640 L103.021,39.870 L106.915,39.870 L106.915,21.758 L113.883,39.870 L116.652,39.870 L116.652,12.640 ZM144.258,12.640 L140.364,26.256 L136.469,12.640 L132.575,12.640 L138.417,31.118 L138.417,39.870 L142.311,39.870 L142.311,31.118 L148.153,12.640 L144.258,12.640 ZM47.473,18.476 L49.420,30.146 L45.525,30.146 L47.473,18.476 Z"/>
</svg>