<svg 
 xmlns="http://www.w3.org/2000/svg"
 xmlns:xlink="http://www.w3.org/1999/xlink"
 width="46px" height="50px">
<path fill-rule="evenodd"  fill="rgb(240, 38, 106)"
 d="M13.048,32.821 L40.497,32.821 C43.534,32.821 46.005,30.327 46.005,27.259 L46.005,15.593 C46.005,15.580 46.002,15.566 46.002,15.553 C46.002,15.506 45.996,15.463 45.989,15.420 C45.982,15.380 45.979,15.343 45.969,15.307 C45.959,15.266 45.946,15.227 45.932,15.187 C45.919,15.150 45.906,15.110 45.890,15.073 C45.873,15.037 45.854,15.003 45.834,14.970 C45.814,14.933 45.794,14.900 45.771,14.867 C45.748,14.834 45.722,14.804 45.695,14.774 C45.669,14.744 45.643,14.714 45.616,14.688 C45.587,14.661 45.558,14.635 45.524,14.611 C45.495,14.588 45.462,14.562 45.429,14.542 C45.396,14.518 45.360,14.502 45.323,14.485 C45.287,14.465 45.251,14.448 45.211,14.432 C45.175,14.418 45.139,14.409 45.099,14.398 C45.056,14.385 45.017,14.374 44.971,14.368 C44.957,14.365 44.945,14.362 44.931,14.359 L10.012,9.495 L10.012,4.454 C10.012,4.371 10.005,4.287 9.988,4.205 C9.981,4.165 9.966,4.129 9.956,4.092 C9.943,4.052 9.936,4.012 9.920,3.972 C9.903,3.932 9.879,3.895 9.860,3.859 C9.843,3.826 9.827,3.789 9.804,3.759 C9.785,3.726 9.758,3.700 9.732,3.670 C9.705,3.637 9.682,3.603 9.653,3.570 C9.623,3.539 9.590,3.516 9.560,3.489 C9.530,3.467 9.504,3.436 9.471,3.416 C9.402,3.370 9.330,3.330 9.254,3.297 L1.717,0.083 C1.088,-0.186 0.359,0.113 0.096,0.748 C-0.171,1.384 0.126,2.116 0.755,2.385 L7.541,5.279 L7.541,35.950 C7.541,38.854 9.755,41.238 12.568,41.488 C12.001,42.357 11.668,43.391 11.668,44.505 C11.668,47.534 14.110,49.998 17.108,49.998 C20.105,49.998 22.546,47.534 22.546,44.505 C22.546,43.401 22.220,42.374 21.660,41.511 L34.610,41.511 C34.053,42.374 33.724,43.401 33.724,44.505 C33.724,47.534 36.165,49.998 39.162,49.998 C42.164,49.998 44.602,47.534 44.602,44.505 C44.602,41.478 42.161,39.013 39.162,39.013 L13.048,39.013 C11.376,39.013 10.015,37.639 10.015,35.950 L10.015,31.900 C10.885,32.479 11.925,32.821 13.048,32.821 ZM10.015,20.387 L10.015,12.014 L43.528,16.680 L43.528,27.259 C43.528,28.949 42.168,30.324 40.493,30.324 L13.048,30.324 C11.376,30.324 10.015,28.949 10.015,27.259 L10.015,20.387 ZM39.170,41.511 C40.803,41.511 42.135,42.856 42.135,44.505 C42.135,46.156 40.803,47.500 39.170,47.500 C37.535,47.500 36.204,46.156 36.204,44.505 C36.201,42.853 37.532,41.511 39.170,41.511 ZM17.108,41.511 C18.741,41.511 20.072,42.856 20.072,44.505 C20.072,46.156 18.741,47.500 17.108,47.500 C15.473,47.500 14.142,46.156 14.142,44.505 C14.142,42.853 15.473,41.511 17.108,41.511 Z"/>
</svg>