<svg
        xmlns:xlink="http://www.w3.org/1999/xlink"
        xmlns="http://www.w3.org/2000/svg"
        width="62px" height="62px">
    <path fill-rule="evenodd" fill="rgb(216, 216, 216)"
          d="M0.930,61.932 L0.930,59.746 C0.930,57.432 0.930,52.619 3.160,47.741 C5.949,41.638 11.212,37.507 18.804,35.459 L19.700,35.219 L20.493,35.692 C23.789,37.652 27.569,38.688 31.423,38.688 C35.279,38.688 39.059,37.650 42.353,35.688 L43.146,35.215 L44.041,35.455 C51.635,37.503 56.898,41.634 59.687,47.736 C61.917,52.619 61.917,57.432 61.917,59.746 L61.917,61.932 L0.930,61.932 ZM55.710,49.556 C53.590,44.918 49.568,41.678 43.752,39.922 C39.989,41.976 35.736,43.060 31.423,43.060 C27.111,43.060 22.857,41.976 19.091,39.922 C13.279,41.681 9.257,44.921 7.133,49.557 C6.087,51.851 5.498,54.478 5.344,57.559 L57.502,57.559 C57.347,54.478 56.758,51.851 55.710,49.556 ZM31.423,33.624 C22.414,33.624 15.084,26.294 15.084,17.285 C15.084,8.274 22.414,0.944 31.423,0.944 C40.433,0.944 47.763,8.274 47.763,17.285 C47.763,26.294 40.433,33.624 31.423,33.624 ZM31.423,5.316 C24.824,5.316 19.456,10.685 19.456,17.285 C19.456,23.883 24.824,29.252 31.423,29.252 C38.022,29.252 43.391,23.883 43.391,17.285 C43.391,10.685 38.022,5.316 31.423,5.316 Z"/>
</svg>
