<svg
        xmlns:xlink="http://www.w3.org/1999/xlink"
        xmlns="http://www.w3.org/2000/svg"
        width="50px" height="45px">
    <path fill-rule="evenodd" fill="rgb(240, 38, 106)"
          d="M49.804,42.113 L47.399,44.956 L28.796,29.225 C25.738,32.176 21.585,34.000 17.000,34.000 C7.611,34.000 0.000,26.388 0.000,17.000 C0.000,7.611 7.611,0.000 17.000,0.000 C26.389,0.000 34.000,7.611 34.000,17.000 C34.000,20.462 32.959,23.679 31.182,26.365 L49.804,42.113 ZM17.000,3.000 C9.268,3.000 3.000,9.268 3.000,17.000 C3.000,24.732 9.268,31.000 17.000,31.000 C24.732,31.000 31.000,24.732 31.000,17.000 C31.000,9.268 24.732,3.000 17.000,3.000 Z"/>
</svg>
