<svg
        xmlns:xlink="http://www.w3.org/1999/xlink"
        xmlns="http://www.w3.org/2000/svg"
        width="40px" height="40px">
    <path fill-rule="evenodd" fill="rgb(240, 38, 106)"
          d="M39.277,6.377 L33.641,0.738 C32.639,-0.267 31.025,-0.237 30.014,0.767 L6.291,24.504 C6.098,24.699 5.926,24.950 5.785,25.203 L0.293,36.332 C-0.214,37.336 -0.013,38.482 0.768,39.264 C1.245,39.739 1.884,39.993 2.521,39.993 C2.910,39.993 3.304,39.911 3.667,39.709 L14.789,34.213 C15.042,34.101 15.265,33.929 15.457,33.707 L39.210,9.940 C40.220,9.001 40.251,7.380 39.277,6.377 ZM4.373,35.670 L8.611,27.079 L12.960,31.431 L4.373,35.670 ZM15.383,29.140 L10.893,24.676 L25.673,9.886 L30.132,14.381 L15.383,29.140 ZM32.496,12.014 L28.036,7.552 L31.858,3.728 L36.317,8.192 L32.496,12.014 Z"/>
</svg>
