<svg
        xmlns:xlink="http://www.w3.org/1999/xlink"
        xmlns="http://www.w3.org/2000/svg"
        width="32px" height="26px">
    <path fill-rule="evenodd" fill="rgb(240, 38, 106)"
          d="M30.210,26.005 L1.797,26.005 C0.807,26.005 0.001,25.192 0.001,24.194 L0.001,5.647 C0.001,4.648 0.807,3.836 1.797,3.836 L9.739,3.836 L9.739,1.106 C9.739,0.496 10.231,-0.000 10.835,-0.000 L21.172,-0.000 C21.777,-0.000 22.268,0.496 22.268,1.106 L22.268,3.836 L30.210,3.836 C31.201,3.836 32.006,4.648 32.006,5.647 L32.006,24.194 C32.006,25.192 31.201,26.005 30.210,26.005 ZM29.813,6.047 L21.172,6.047 C20.567,6.047 20.076,5.551 20.076,4.942 L20.076,2.211 L11.932,2.211 L11.932,4.942 C11.932,5.551 11.440,6.047 10.835,6.047 L2.194,6.047 L2.194,23.793 L29.813,23.793 L29.813,6.047 ZM16.004,7.523 C20.046,7.523 23.336,10.841 23.336,14.919 C23.336,18.998 20.046,22.316 16.004,22.316 C11.961,22.316 8.672,18.998 8.672,14.919 C8.672,10.841 11.961,7.523 16.004,7.523 ZM16.004,20.104 C18.837,20.104 21.143,17.778 21.143,14.919 C21.143,12.061 18.837,9.735 16.004,9.735 C13.170,9.735 10.864,12.061 10.864,14.919 C10.864,17.778 13.170,20.104 16.004,20.104 Z"/>
</svg>
